Coordinates
version=1
nRows=11
nColumns=63
inDegrees=yes

Units are S.I. units (second, meters, Newtons, ...)
If the header above contains a line with 'inDegrees', this indicates whether rotational values are in degrees (yes) or radians (no).

endheader
time	pelvis_tilt	pelvis_list	pelvis_rotation	pelvis_tx	pelvis_ty	pelvis_tz	hip_flexion_r	hip_adduction_r	hip_rotation_r	knee_angle_r	knee_angle_r_beta	ankle_angle_r	subtalar_angle_r	mtp_angle_r	hip_flexion_l	hip_adduction_l	hip_rotation_l	knee_angle_l	knee_angle_l_beta	ankle_angle_l	subtalar_angle_l	mtp_angle_l	L5_S1_Flex_Ext	L5_S1_Lat_Bending	L5_S1_axial_rotation	L4_L5_Flex_Ext	L4_L5_Lat_Bending	L4_L5_axial_rotation	L3_L4_Flex_Ext	L3_L4_Lat_Bending	L3_L4_axial_rotation	L2_L3_Flex_Ext	L2_L3_Lat_Bending	L2_L3_axial_rotation	L1_L2_Flex_Ext	L1_L2_Lat_Bending	L1_L2_axial_rotation	L1_T12_Flex_Ext	L1_T12_Lat_Bending	L1_T12_axial_rotation	Abs_r3	Abs_r2	Abs_r1	Abs_t1	Abs_t2	neck_flexion	neck_bending	neck_rotation	arm_flex_r	arm_add_r	arm_rot_r	elbow_flex_r	pro_sup_r	wrist_flex_r	wrist_dev_r	arm_flex_l	arm_add_l	arm_rot_l	elbow_flex_l	pro_sup_l	wrist_flex_l	wrist_dev_l
      3.75000000	    -53.42123440	     -0.06685525	      6.01246774	     -0.25291644	      1.01917998	      0.00935392	     81.94647711	     -7.69023504	      0.81091334	     45.31760224	      0.79094137	      9.72582586	     -7.42478146	      0.00000000	    128.59807813	      2.73875281	      4.15345088	    117.10273135	      2.04382823	     17.13191427	      2.19429623	      0.00000000	     -0.07367308	     -0.22512352	     -0.85120790	     -0.13681827	     -0.29941428	     -0.90440839	     -0.12103750	     -0.54736532	     -0.90440839	     -0.08420096	     -0.54736532	     -0.74480691	     -0.06841282	     -0.45907187	     -0.69160642	     -0.04209680	     -0.34871633	     -0.63840592	     -0.52623942	     -2.54664224	     -4.73416295	      0.00000000	      0.00000000	     -0.00000000	      0.00000000	      0.00000000	     76.22534848	    -13.51687897	     28.26242372	     22.12306738	     29.20546369	      0.00000000	      5.00000313	     75.24836620	    -13.44081149	     30.03931525	     31.78574918	     46.13297524	      0.00000000	      5.00000313
      3.75800000	    -53.50748668	     -0.06318877	      5.81642463	     -0.25348232	      1.01960578	      0.00968904	     82.15892890	     -7.54909540	      0.64654904	     47.06116701	      0.82137231	      9.77538603	     -7.38307497	      0.00000000	    128.89685048	      2.72070273	      4.17170050	    115.88938595	      2.02265135	     17.14038291	      1.85392075	      0.00000000	     -0.07296402	     -0.22364567	     -0.83099715	     -0.13550149	     -0.29744875	     -0.88293447	     -0.11987260	     -0.54377209	     -0.88293447	     -0.08339058	     -0.54377209	     -0.72712251	     -0.06775439	     -0.45605826	     -0.67518518	     -0.04169164	     -0.34642715	     -0.62324786	     -0.52117473	     -2.52992460	     -4.62175685	      0.00000000	      0.00000000	     -0.00000000	      0.00000000	      0.00000000	     76.31249133	    -13.41490925	     28.23672860	     22.15043834	     29.23940199	      0.00000000	      5.00000309	     75.29870230	    -13.51613638	     29.90488123	     31.85322005	     46.10765551	      0.00000000	      5.00000309
      3.76700000	    -53.59066295	     -0.07418878	      5.59881206	     -0.25408533	      1.02007641	      0.01010420	     82.53585560	     -7.41109746	      0.48297572	     49.14713637	      0.85777935	      9.80996355	     -7.33393868	      0.00000000	    129.02452183	      2.69233875	      4.19197438	    114.46559130	      1.99780145	     17.10622875	      1.32597451	      0.00000000	     -0.07361684	     -0.22213805	     -0.80776900	     -0.13671384	     -0.29544361	     -0.85825457	     -0.12094511	     -0.54010646	     -0.85825457	     -0.08413669	     -0.54010646	     -0.70679788	     -0.06836060	     -0.45298392	     -0.65631231	     -0.04206466	     -0.34409184	     -0.60582675	     -0.52583776	     -2.51287007	     -4.49256886	      0.00000000	      0.00000000	     -0.00000000	      0.00000000	      0.00000000	     76.39341692	    -13.31219203	     28.20449479	     22.13705993	     29.27566559	      0.00000000	      5.00000305	     75.35067835	    -13.58976153	     29.73692523	     31.90960896	     46.07661625	      0.00000000	      5.00000305
      3.77500000	    -53.66670826	     -0.07844924	      5.31631056	     -0.25473912	      1.02055066	      0.01059775	     83.01364157	     -7.23200612	      0.34712465	     51.39655246	      0.89703906	      9.87982909	     -7.30980428	      0.00000000	    128.97642241	      2.62157607	      4.24499262	    112.84715109	      1.96955434	     17.08533100	      0.66050411	      0.00000000	     -0.07400214	     -0.21982543	     -0.77030345	     -0.13742938	     -0.29236782	     -0.81844742	     -0.12157812	     -0.53448355	     -0.81844742	     -0.08457705	     -0.53448355	     -0.67401552	     -0.06871839	     -0.44826802	     -0.62587156	     -0.04228482	     -0.34050959	     -0.57772759	     -0.52858989	     -2.48670925	     -4.28419671	      0.00000000	      0.00000000	     -0.00000000	      0.00000000	      0.00000000	     76.50804498	    -13.21701444	     28.16948438	     22.12591576	     29.32031004	      0.00000000	      5.00000300	     75.38506699	    -13.63479125	     29.58221456	     31.94699964	     46.04743095	      0.00000000	      5.00000300
      3.78300000	    -53.72393162	     -0.04596923	      5.01436752	     -0.25544229	      1.02101815	      0.01111845	     83.61819593	     -7.05153996	      0.28454964	     53.87410629	      0.94028054	      9.87809617	     -7.30548260	      0.00000000	    128.72353310	      2.53023063	      4.22830024	    111.02990548	      1.93783742	     17.08775152	     -0.28323708	      0.00000000	     -0.07758807	     -0.22164617	     -0.72718689	     -0.14408881	     -0.29478941	     -0.77263607	     -0.12746944	     -0.53891050	     -0.77263607	     -0.08867541	     -0.53891050	     -0.63628853	     -0.07204828	     -0.45198088	     -0.59083935	     -0.04433382	     -0.34332992	     -0.54539017	     -0.55420385	     -2.50730583	     -4.04439532	      0.00000000	      0.00000000	     -0.00000000	      0.00000000	      0.00000000	     76.62545491	    -13.10033418	     28.13716927	     22.08518869	     29.37457082	      0.00000000	      5.00000295	     75.48346756	    -13.67637672	     29.40974271	     31.94453149	     46.01593926	      0.00000000	      5.00000295
      3.79200000	    -53.77119194	     -0.06463004	      4.61516943	     -0.25600258	      1.02122421	      0.01177057	     84.34974157	     -6.75008877	      0.26837663	     56.60645458	      0.98796901	      9.93615610	     -7.48898775	      0.00000000	    128.34700485	      2.36848032	      4.33934619	    109.14547425	      1.90494789	     17.20477881	     -1.24909109	      0.00000000	     -0.07284398	     -0.21811940	     -0.65551360	     -0.13527856	     -0.29009880	     -0.69648320	     -0.11967538	     -0.53033550	     -0.69648320	     -0.08325339	     -0.53033550	     -0.57357440	     -0.06764292	     -0.44478907	     -0.53260480	     -0.04162305	     -0.33786694	     -0.49163520	     -0.52031727	     -2.46741024	     -3.64577000	      0.00000000	      0.00000000	     -0.00000000	      0.00000000	      0.00000000	     76.68917655	    -13.05604523	     28.11876150	     21.97439676	     29.36858703	      0.00000000	      5.00000292	     75.49122465	    -13.63559483	     29.31633139	     31.91798029	     46.00003394	      0.00000000	      5.00000292
      3.80000000	    -53.83786369	      0.29217316	      4.40653246	     -0.25676257	      1.02173524	      0.01240749	     85.24689484	     -6.69934992	      0.65624492	     59.37921613	      1.03636283	      9.53484074	     -7.80965228	      0.00000000	    127.66222613	      2.12869734	      3.81516402	    106.85408899	      1.86495567	     17.07628868	     -3.44777058	      0.00000000	     -0.07682058	     -0.26542368	     -0.62830917	     -0.14266351	     -0.35301350	     -0.66757850	     -0.12620854	     -0.64535114	     -0.66757850	     -0.08779825	     -0.64535114	     -0.54977053	     -0.07133560	     -0.54125197	     -0.51050120	     -0.04389528	     -0.41114128	     -0.47123188	     -0.54872176	     -3.00252576	     -3.49446713	      0.00000000	      0.00000000	     -0.00000000	      0.00000000	      0.00000000	     76.75823681	    -12.91994579	     28.12378716	     21.84806637	     29.36740724	      0.00000000	      5.00000283	     75.69807883	    -13.66306789	     29.18184208	     31.78228655	     45.98132993	      0.00000000	      5.00000283
      3.80800000	    -53.81533591	      0.15259282	      3.76121372	     -0.25719760	      1.02165456	      0.01327322	     86.03916769	     -6.11878504	      0.60784547	     62.22512569	      1.08603332	      9.86820769	     -8.07774162	      0.00000000	    126.98974917	      1.82324589	      4.28771479	    104.80466993	      1.82918656	     17.27121460	     -4.03489260	      0.00000000	     -0.07481151	     -0.24304113	     -0.50778775	     -0.13893246	     -0.32324470	     -0.53952448	     -0.12290783	     -0.59093020	     -0.53952448	     -0.08550208	     -0.59093020	     -0.44431428	     -0.06946997	     -0.49560947	     -0.41257755	     -0.04274730	     -0.37647071	     -0.38084081	     -0.53437114	     -2.74932983	     -2.82416313	      0.00000000	      0.00000000	     -0.00000000	      0.00000000	      0.00000000	     76.82646396	    -12.93678975	     28.10252632	     21.80679782	     29.36124536	      0.00000000	      5.00000281	     75.65475926	    -13.62015669	     29.20117360	     31.79819851	     45.98451451	      0.00000000	      5.00000281
      3.81700000	    -53.80830894	      0.34723638	      3.41825149	     -0.25774645	      1.02173959	      0.01394448	     87.07583172	     -5.91070186	      0.92159098	     65.28648801	      1.13946417	      9.43759201	     -8.24364023	      0.00000000	    125.97994192	      1.54199468	      4.14948917	    102.37782927	      1.78683020	     17.88593039	     -5.31142865	      0.00000000	     -0.07642320	     -0.26505266	     -0.45446471	     -0.14192553	     -0.35252004	     -0.48286876	     -0.12555568	     -0.64444903	     -0.48286876	     -0.08734408	     -0.64444903	     -0.39765662	     -0.07096659	     -0.54049538	     -0.36925258	     -0.04366822	     -0.41056657	     -0.34084853	     -0.54588329	     -2.99832868	     -2.52759639	      0.00000000	      0.00000000	     -0.00000000	      0.00000000	      0.00000000	     76.87261125	    -12.82767705	     28.13279586	     21.68637889	     29.36780705	      0.00000000	      5.00000276	     75.78224638	    -13.64139230	     29.18843227	     31.60431798	     45.98571969	      0.00000000	      5.00000276
      3.82500000	    -53.73831287	      0.27092539	      2.82095496	     -0.25803775	      1.02141431	      0.01477387	     87.99520275	     -5.36068812	      1.01372297	     68.29237381	      1.19192678	      9.76592085	     -8.55344545	      0.00000000	    124.98185280	      1.19291596	      4.59101006	    100.12130090	      1.74744635	     18.09556743	     -5.81094984	      0.00000000	     -0.07543400	     -0.25031181	     -0.34151562	     -0.14008848	     -0.33291470	     -0.36286035	     -0.12393052	     -0.60860813	     -0.36286035	     -0.08621352	     -0.60860813	     -0.29882617	     -0.07004801	     -0.51043584	     -0.27748144	     -0.04310299	     -0.38773299	     -0.25613672	     -0.53881752	     -2.83157723	     -1.89940742	      0.00000000	      0.00000000	     -0.00000000	      0.00000000	      0.00000000	     76.90794887	    -12.87166921	     28.13283268	     21.61082324	     29.36815151	      0.00000000	      5.00000274	     75.72134032	    -13.58222091	     29.22396190	     31.61981874	     45.99108241	      0.00000000	      5.00000274
      3.83300000	    -53.69534989	      0.50614866	      2.53680138	     -0.25848406	      1.02127763	      0.01543350	     89.12178857	     -5.17116690	      1.42994636	     71.40994299	      1.24633862	      9.46286450	     -8.72707908	      0.00000000	    123.68620580	      0.87148688	      4.46678256	     97.46604841	      1.70110345	     18.81444050	     -6.62300437	      0.00000000	     -0.07715807	     -0.27649972	     -0.30092830	     -0.14329025	     -0.36774463	     -0.31973632	     -0.12676300	     -0.67228142	     -0.31973632	     -0.08818396	     -0.67228142	     -0.26331227	     -0.07164899	     -0.56383823	     -0.24450425	     -0.04408812	     -0.42829807	     -0.22569623	     -0.55113239	     -3.12782016	     -1.67367295	      0.00000000	      0.00000000	     -0.00000000	      0.00000000	      0.00000000	     76.93355599	    -12.77891364	     28.21592111	     21.51572209	     29.38967053	      0.00000000	      5.00000269	     75.82784178	    -13.64991073	     29.22228180	     31.44447350	     45.99395688	      0.00000000	      5.00000269
